<svg width="124" height="50" viewBox="0 0 124 50" fill="none" xmlns="http://www.w3.org/2000/svg">
<path fill-rule="evenodd" clip-rule="evenodd" d="M25.9588 0C12.1228 0 0.93811 11.3166 0.93811 25.3158C0.93811 36.5067 8.10462 45.9791 18.0466 49.3322C19.2894 49.5837 19.745 48.7873 19.745 48.1167C19.745 47.5299 19.7036 45.518 19.7036 43.4224C12.7442 44.9313 11.2943 40.4046 11.2943 40.4046C10.1759 37.4707 8.51887 36.7162 8.51887 36.7162C6.2405 35.1654 8.68457 35.1654 8.68457 35.1654C11.2115 35.3331 12.5371 37.7641 12.5371 37.7641C14.774 41.6201 18.378 40.5303 19.8279 39.8597C20.035 38.2251 20.6978 37.0934 21.402 36.4647C15.8511 35.8779 10.0102 33.6984 10.0102 23.9745C10.0102 21.2082 11.0044 18.9449 12.5785 17.1845C12.33 16.5558 11.46 13.9572 12.8271 10.4784C12.8271 10.4784 14.9397 9.80776 19.7036 13.077C21.692 12.5321 23.8461 12.2387 25.9588 12.2387C28.0714 12.2387 30.2255 12.5321 32.2139 13.077C36.9778 9.80776 39.0905 10.4784 39.0905 10.4784C40.4575 13.9572 39.5876 16.5558 39.339 17.1845C40.9546 18.9449 41.9074 21.2082 41.9074 23.9745C41.9074 33.6984 36.0665 35.836 30.4741 36.4647C31.3854 37.2611 32.1725 38.77 32.1725 41.159C32.1725 44.554 32.1311 47.2784 32.1311 48.1167C32.1311 48.7873 32.5868 49.5837 33.8295 49.3322C43.7715 45.9791 50.938 36.5067 50.938 25.3158C50.9794 11.3166 39.7533 0 25.9588 0Z" fill="#100E0F"/>
<path d="M10.4244 36.339C10.3829 36.4647 10.1758 36.5066 10.0101 36.4228C9.84441 36.339 9.72013 36.1713 9.80298 36.0456C9.84441 35.9198 10.0515 35.8779 10.2172 35.9618C10.3829 36.0456 10.4658 36.2132 10.4244 36.339Z" fill="#231E1B"/>
<path d="M11.4186 37.4707C11.2943 37.5964 11.0457 37.5126 10.9215 37.3449C10.7558 37.1773 10.7143 36.9258 10.8386 36.8C10.9629 36.6743 11.17 36.7581 11.3357 36.9258C11.5014 37.1353 11.5428 37.3868 11.4186 37.4707Z" fill="#231E1B"/>
<path d="M12.4128 38.9376C12.2471 39.0634 11.9985 38.9376 11.8743 38.7281C11.7086 38.5185 11.7086 38.2251 11.8743 38.1413C12.04 38.0155 12.2885 38.1413 12.4128 38.3508C12.5785 38.5604 12.5785 38.8119 12.4128 38.9376Z" fill="#231E1B"/>
<path d="M13.7799 40.3627C13.6556 40.5304 13.3656 40.4884 13.1171 40.2789C12.91 40.0693 12.8271 39.7759 12.9928 39.6502C13.1171 39.4825 13.4071 39.5244 13.6556 39.734C13.8627 39.9017 13.9042 40.195 13.7799 40.3627Z" fill="#231E1B"/>
<path d="M15.644 41.159C15.6025 41.3686 15.3126 41.4524 15.0226 41.3686C14.7326 41.2848 14.5669 41.0333 14.6083 40.8657C14.6498 40.6561 14.9397 40.5723 15.2297 40.6561C15.5197 40.7399 15.6854 40.9495 15.644 41.159Z" fill="#231E1B"/>
<path d="M17.6739 41.3267C17.6739 41.5363 17.4253 41.7039 17.1353 41.7039C16.8454 41.7039 16.5968 41.5363 16.5968 41.3267C16.5968 41.1171 16.8454 40.9495 17.1353 40.9495C17.4253 40.9495 17.6739 41.1171 17.6739 41.3267Z" fill="#231E1B"/>
<path d="M19.5794 40.9914C19.6208 41.201 19.4137 41.4105 19.1237 41.4524C18.8337 41.4944 18.5852 41.3686 18.5437 41.1591C18.5023 40.9495 18.7094 40.7399 18.9994 40.698C19.2894 40.6561 19.5379 40.7818 19.5794 40.9914Z" fill="#231E1B"/>
<path d="M76.1749 13.8501H71.2959C71.1671 13.8501 71.0705 13.9487 71.0705 14.0801V16.5113C71.0705 16.6427 71.1671 16.7413 71.2959 16.7413H73.196V19.7639C73.196 19.7639 72.7612 19.9117 71.5858 19.9117C70.201 19.9117 68.2526 19.386 68.2526 15.0329C68.2526 10.6632 70.2815 10.0883 72.1816 10.0883C73.824 10.0883 74.5325 10.384 74.9833 10.5318C75.1283 10.5811 75.2571 10.4333 75.2571 10.3018L75.8046 7.95277C75.8046 7.88706 75.7885 7.82136 75.724 7.77207C75.5308 7.64066 74.4198 7 71.5858 7C68.3331 7 65 8.41273 65 15.1971C65 21.9815 68.8162 23 72.0366 23C74.7096 23 76.3198 21.8337 76.3198 21.8337C76.3842 21.8008 76.4003 21.7023 76.4003 21.653V14.0801C76.4003 13.9487 76.3037 13.8501 76.1749 13.8501Z" fill="#100E0F"/>
<path d="M101.294 7.82135C101.294 7.68993 101.198 7.59137 101.069 7.59137H98.3315C98.2027 7.59137 98.1061 7.68993 98.1061 7.82135V13.2259H93.8229V7.82135C93.8229 7.68993 93.7263 7.59137 93.5974 7.59137H90.8601C90.7313 7.59137 90.6346 7.68993 90.6346 7.82135V22.4743C90.6346 22.6057 90.7313 22.7043 90.8601 22.7043H93.5974C93.7263 22.7043 93.8229 22.6057 93.8229 22.4743V16.1992H98.1061V22.4579C98.1061 22.5893 98.2027 22.6879 98.3315 22.6879H101.085C101.214 22.6879 101.31 22.5893 101.31 22.4579V7.82135H101.294Z" fill="#100E0F"/>
<path d="M81.3438 9.74333C81.3438 8.74128 80.5547 7.91992 79.5725 7.91992C78.5903 7.91992 77.8013 8.74128 77.8013 9.74333C77.8013 10.7454 78.5903 11.5667 79.5725 11.5667C80.5547 11.5667 81.3438 10.7454 81.3438 9.74333Z" fill="#100E0F"/>
<path d="M81.1505 19.3696C81.1505 18.9918 81.1505 12.6017 81.1505 12.6017C81.1505 12.4702 81.0539 12.3717 80.9251 12.3717H78.1877C78.0589 12.3717 77.9462 12.5031 77.9462 12.6345C77.9462 12.6345 77.9462 20.7659 77.9462 22.3265C77.9462 22.6058 78.1233 22.6879 78.3487 22.6879C78.3487 22.6879 79.5242 22.6879 80.8124 22.6879C81.0861 22.6879 81.1505 22.5565 81.1505 22.3101C81.1505 21.8008 81.1505 19.7639 81.1505 19.3696Z" fill="#100E0F"/>
<path d="M111.712 12.4045H108.991C108.862 12.4045 108.766 12.5031 108.766 12.6345V19.8131C108.766 19.8131 108.073 20.3224 107.091 20.3224C106.109 20.3224 105.851 19.8624 105.851 18.8932C105.851 17.9076 105.851 12.6345 105.851 12.6345C105.851 12.5031 105.755 12.4045 105.626 12.4045H102.856C102.727 12.4045 102.631 12.5031 102.631 12.6345C102.631 12.6345 102.631 16.462 102.631 19.3696C102.631 22.2772 104.225 23 106.415 23C108.218 23 109.651 21.9815 109.651 21.9815C109.651 21.9815 109.716 22.5072 109.748 22.5729C109.78 22.6386 109.861 22.7043 109.941 22.7043H111.696C111.825 22.7043 111.922 22.6057 111.922 22.4743V12.6345C111.938 12.5031 111.841 12.4045 111.712 12.4045Z" fill="#100E0F"/>
<path d="M119.152 12.076C117.606 12.076 116.559 12.7823 116.559 12.7823V7.82135C116.559 7.68993 116.462 7.59137 116.334 7.59137H113.58C113.451 7.59137 113.355 7.68993 113.355 7.82135V22.4743C113.355 22.6057 113.451 22.7043 113.58 22.7043H115.496C115.577 22.7043 115.641 22.655 115.69 22.5729C115.738 22.4908 115.802 21.8994 115.802 21.8994C115.802 21.8994 116.929 22.9836 119.055 22.9836C121.551 22.9836 122.984 21.6858 122.984 17.1684C123 12.6673 120.713 12.076 119.152 12.076ZM118.089 20.3224C117.139 20.2895 116.511 19.8624 116.511 19.8624V15.2135C116.511 15.2135 117.139 14.8193 117.912 14.7536C118.894 14.6715 119.844 14.9671 119.844 17.3491C119.828 19.8624 119.409 20.3717 118.089 20.3224Z" fill="#100E0F"/>
<path d="M89.0406 12.3717H86.9795V9.59548C86.9795 9.49692 86.9312 9.43121 86.8024 9.43121H84.0006C83.8879 9.43121 83.8396 9.48049 83.8396 9.57906V12.4538C83.8396 12.4538 82.4387 12.7988 82.3421 12.8316C82.2454 12.8645 82.181 12.9466 82.181 13.0616V14.8686C82.181 15 82.2776 15.0986 82.4065 15.0986H83.8396C83.8396 15.0986 83.8396 16.9877 83.8396 19.4353C83.8396 22.655 86.0456 22.9671 87.5431 22.9671C88.2193 22.9671 89.0406 22.7372 89.1694 22.6879C89.2499 22.655 89.2982 22.5729 89.2982 22.4743V20.4867C89.2982 20.3552 89.1855 20.2567 89.0728 20.2567C88.96 20.2567 88.638 20.306 88.3321 20.306C87.3176 20.306 86.9795 19.8296 86.9795 19.2053C86.9795 18.5811 86.9795 15.0821 86.9795 15.0821H89.0406C89.1694 15.0821 89.266 14.9836 89.266 14.8522V12.6016C89.266 12.4867 89.1694 12.3717 89.0406 12.3717Z" fill="#100E0F"/>
<path d="M66.68 31.77V34.1H69.22V34.85H66.68V37.25H69.52V38H65.77V31.02H69.52V31.77H66.68Z" fill="#4E4E52"/>
<path d="M75.497 34.52L77.637 38H76.607L74.937 35.28L73.347 38H72.337L74.467 34.52L72.327 31.03H73.347L75.027 33.76L76.627 31.03H77.647L75.497 34.52Z" fill="#4E4E52"/>
<path d="M85.2679 33.07C85.2679 33.65 85.0679 34.1333 84.6679 34.52C84.2746 34.9 83.6712 35.09 82.8579 35.09H81.5179V38H80.6079V31.03H82.8579C83.6446 31.03 84.2412 31.22 84.6479 31.6C85.0612 31.98 85.2679 32.47 85.2679 33.07ZM82.8579 34.34C83.3646 34.34 83.7379 34.23 83.9779 34.01C84.2179 33.79 84.3379 33.4767 84.3379 33.07C84.3379 32.21 83.8446 31.78 82.8579 31.78H81.5179V34.34H82.8579Z" fill="#4E4E52"/>
<path d="M89.0589 37.26H91.4989V38H88.1489V31.03H89.0589V37.26Z" fill="#4E4E52"/>
<path d="M97.3753 38.07C96.7287 38.07 96.1387 37.92 95.6053 37.62C95.072 37.3133 94.6487 36.89 94.3353 36.35C94.0287 35.8033 93.8753 35.19 93.8753 34.51C93.8753 33.83 94.0287 33.22 94.3353 32.68C94.6487 32.1333 95.072 31.71 95.6053 31.41C96.1387 31.1033 96.7287 30.95 97.3753 30.95C98.0287 30.95 98.622 31.1033 99.1553 31.41C99.6887 31.71 100.109 32.13 100.415 32.67C100.722 33.21 100.875 33.8233 100.875 34.51C100.875 35.1967 100.722 35.81 100.415 36.35C100.109 36.89 99.6887 37.3133 99.1553 37.62C98.622 37.92 98.0287 38.07 97.3753 38.07ZM97.3753 37.28C97.862 37.28 98.2987 37.1667 98.6853 36.94C99.0787 36.7133 99.3853 36.39 99.6053 35.97C99.832 35.55 99.9453 35.0633 99.9453 34.51C99.9453 33.95 99.832 33.4633 99.6053 33.05C99.3853 32.63 99.082 32.3067 98.6953 32.08C98.3087 31.8533 97.8687 31.74 97.3753 31.74C96.882 31.74 96.442 31.8533 96.0553 32.08C95.6687 32.3067 95.362 32.63 95.1353 33.05C94.9153 33.4633 94.8053 33.95 94.8053 34.51C94.8053 35.0633 94.9153 35.55 95.1353 35.97C95.362 36.39 95.6687 36.7133 96.0553 36.94C96.4487 37.1667 96.8887 37.28 97.3753 37.28Z" fill="#4E4E52"/>
<path d="M107.497 38L105.837 35.15H104.737V38H103.827V31.03H106.077C106.603 31.03 107.047 31.12 107.407 31.3C107.773 31.48 108.047 31.7233 108.227 32.03C108.407 32.3367 108.497 32.6867 108.497 33.08C108.497 33.56 108.357 33.9833 108.077 34.35C107.803 34.7167 107.39 34.96 106.837 35.08L108.587 38H107.497ZM104.737 34.42H106.077C106.57 34.42 106.94 34.3 107.187 34.06C107.433 33.8133 107.557 33.4867 107.557 33.08C107.557 32.6667 107.433 32.3467 107.187 32.12C106.947 31.8933 106.577 31.78 106.077 31.78H104.737V34.42Z" fill="#4E4E52"/>
<path d="M112.571 31.77V34.1H115.111V34.85H112.571V37.25H115.411V38H111.661V31.02H115.411V31.77H112.571Z" fill="#4E4E52"/>
<path d="M122.208 38L120.548 35.15H119.448V38H118.538V31.03H120.788C121.314 31.03 121.758 31.12 122.118 31.3C122.484 31.48 122.758 31.7233 122.938 32.03C123.118 32.3367 123.208 32.6867 123.208 33.08C123.208 33.56 123.068 33.9833 122.788 34.35C122.514 34.7167 122.101 34.96 121.548 35.08L123.298 38H122.208ZM119.448 34.42H120.788C121.281 34.42 121.651 34.3 121.898 34.06C122.144 33.8133 122.268 33.4867 122.268 33.08C122.268 32.6667 122.144 32.3467 121.898 32.12C121.658 31.8933 121.288 31.78 120.788 31.78H119.448V34.42Z" fill="#4E4E52"/>
</svg>
